HIERARCHY
ROOT Hips
{
	OFFSET 0.000000 0.000000 0.000000 
	CHANNELS 6 Xposition Yposition Zposition Yrotation Zrotation Xrotation 
	JOINT Lumbar
	{
		OFFSET 0.000000 0.000000 0.000000 
		CHANNELS 3 Zrotation Xrotation Yrotation
		JOINT Neck
		{
			OFFSET 0.000000 0.445665 0.000000 
			CHANNELS 3 Zrotation Xrotation Yrotation
			End Site
			{
				OFFSET 0.000000 0.227535 0.000000 
			}
		}
		JOINT RightShoulder
		{
			OFFSET 0.019635 0.377685 0.194865 
			CHANNELS 3 Zrotation Xrotation Yrotation
			JOINT RightElbow
			{
				OFFSET 0.000000 -0.243375 0.000000 
				CHANNELS 2 Zrotation Yrotation
				JOINT RightWrist
				{
					OFFSET 0.000000 -0.264825 0.000000 
					CHANNELS 2 Zrotation Xrotation
					End Site
					{
						OFFSET 0.006600 -0.176220 0.000990 
					}
				}
			}
		}
		JOINT LeftShoulder
		{
			OFFSET 0.019635 0.377685 -0.194865 
			CHANNELS 3 Zrotation Xrotation Yrotation
			JOINT LeftElbow
			{
				OFFSET 0.000000 -0.243375 0.000000 
				CHANNELS 2 Zrotation Yrotation
				JOINT LeftWrist
				{
					OFFSET 0.000000 -0.264825 0.000000 
					CHANNELS 2 Zrotation Xrotation
					End Site
					{
						OFFSET 0.006600 -0.176220 -0.000990 
					}
				}
			}
		}
	}
	JOINT RightHip
	{
		OFFSET 0.052140 -0.069960 0.075570 
		CHANNELS 3 Zrotation Xrotation Yrotation
		JOINT RightKnee
		{
			OFFSET 0.000000 -0.402270 0.000000 
			CHANNELS 1 Zrotation
			JOINT RightAnkle
			{
				OFFSET 0.000000 -0.404085 0.000000 
				CHANNELS 3 Zrotation Xrotation Yrotation
				End Site
				{
					OFFSET 0.204105 -0.089430 0.008415 
				}
			}
		}
	}
	JOINT LeftHip
	{
		OFFSET 0.052140 -0.069960 -0.075570 
		CHANNELS 3 Zrotation Xrotation Yrotation
		JOINT LeftKnee
		{
			OFFSET 0.000000 -0.402270 0.000000 
			CHANNELS 1 Zrotation
			JOINT LeftAnkle
			{
				OFFSET 0.000000 -0.404085 0.000000 
				CHANNELS 3 Zrotation Xrotation Yrotation
				End Site
				{
					OFFSET 0.204105 -0.089430 -0.008415 
				}
			}
		}
	}
}
MOTION
Frames: 33
Frame Time: 0.02
0.42567 -0.0209 -0.1292 -183.25126 -27.36576 0.92178 38.45744 2.18607 -7.3062 1.01681 -7.06599 -0.83079 67.89373 11.0466 29.01249 127.77799 104.79061 -44.26649 -5.9781 -43.29457 52.97687 -40.29445 99.37827 -106.39954 -20.77265 8.55521 29.25288 3.06833 -9.73357 -25.08902 -5.76599 -2.49249 -1.88823 56.76205 8.02402 0.73955 -47.95152 -11.44632 4.78726 3.45319
0.42841 -0.02079 -0.1299 -182.98187 -27.90085 0.64002 38.57618 2.39913 -7.79209 1.92808 -7.89786 -0.83079 67.80542 11.0713 28.43524 128.16305 103.91355 -42.34289 -5.96142 -43.64479 52.93594 -40.42729 99.38124 -110.61244 -22.55501 9.0753 29.99831 3.3956 -9.83027 -25.01547 -5.78191 -2.5005 -1.89664 57.63919 7.94593 -0.03232 -47.8847 -11.5737 4.80831 3.47258
0.4313 -0.02082 -0.13058 -182.67025 -28.48043 0.32945 38.68155 2.6697 -8.15909 2.99082 -8.71511 -0.83079 67.63757 11.05398 27.92765 128.62908 102.94696 -40.32659 -5.94781 -43.79286 52.96643 -40.76236 99.31707 -116.09899 -24.96203 9.73614 30.80922 3.76265 -9.8867 -24.95862 -5.7958 -2.51787 -1.91001 58.62244 7.8229 -0.96266 -47.8772 -11.72055 4.83672 3.49742
0.43411 -0.0208 -0.13128 -182.37625 -29.03968 0.03119 38.79632 2.90979 -8.56626 3.97266 -9.51162 -0.83079 67.48712 11.05754 27.37778 129.07302 102.03632 -38.33706 -5.93787 -44.02113 52.97179 -41.00623 99.29087 -120.62867 -26.90067 10.29357 31.58886 4.10799 -9.98164 -24.89471 -5.81063 -2.52914 -1.91992 59.55643 7.72233 -1.816 -47.84304 -11.85665 4.86146 3.51945
0.43695 -0.02074 -0.13194 -182.08477 -29.60303 -0.26388 38.89815 3.16921 -9.0368 5.00838 -10.43193 -0.83079 67.41581 11.05687 26.87396 129.45936 101.02992 -36.39697 -5.90253 -44.30285 52.94683 -41.24702 99.23456 -126.75856 -29.62442 11.0189 32.37907 4.46917 -9.99029 -24.82821 -5.82562 -2.54851 -1.93508 60.50069 7.61042 -2.69459 -47.80825 -12.00211 4.88768 3.54301
0.43977 -0.0208 -0.13267 -181.78018 -30.16694 -0.5727 39.02333 3.40154 -9.34511 5.96676 -11.08638 -0.83079 67.15915 11.05401 26.28901 129.98152 100.2401 -34.34847 -5.92694 -44.42482 53.00084 -41.5408 99.22475 -129.88555 -30.87323 11.43025 33.16115 4.80702 -10.16846 -24.77129 -5.83969 -2.55319 -1.94048 61.44644 7.51447 -3.55306 -47.78855 -12.1316 4.91227 3.56446
0.4425 -0.02112 -0.13356 -181.44259 -30.72206 -0.90876 39.2161 3.54603 -9.23594 6.67379 -11.02662 -0.83079 66.43018 11.05206 25.47951 130.87894 99.73969 -31.89662 -6.0586 -44.13939 53.26734 -41.95085 99.35696 -124.04528 -27.71828 10.90593 33.90502 5.06557 -10.83761 -24.73587 -5.85196 -2.51407 -1.91691 62.37065 7.44811 -4.36352 -47.79693 -12.21976 4.93372 3.58095
0.4452 -0.02156 -0.13453 -181.09515 -31.27542 -1.25826 39.43261 3.66089 -8.96667 7.29733 -10.69562 -0.83079 65.51419 11.04937 24.58333 131.90571 99.5181 -29.3665 -6.26019 -43.70187 53.60912 -42.40459 99.53875 -115.20139 -23.0879 10.0672 34.63756 5.3 -11.67682 -24.70975 -5.8633 -2.45996 -1.88344 63.2915 7.40336 -5.14137 -47.81829 -12.28991 4.95283 3.5948
0.44791 -0.02195 -0.13548 -180.75732 -31.82897 -1.60398 39.63835 3.78858 -8.76906 7.9593 -10.47741 -0.83079 64.67058 11.04878 23.71548 132.86033 99.39103 -26.95125 -6.46765 -43.34403 53.9082 -42.82493 99.69924 -107.96584 -19.24599 9.39329 35.37485 5.54877 -12.42967 -24.67995 -5.87487 -2.41328 -1.855 64.21324 7.36652 -5.90155 -47.83293 -12.36297 4.97078 3.60831
0.45067 -0.02233 -0.13635 -180.39601 -32.3875 -1.94101 39.84398 3.92119 -8.572 8.62509 -10.30386 -0.83079 63.87633 11.0397 22.89501 133.87605 98.34371 -24.18338 -6.51859 -42.93638 54.24391 -43.30655 99.85155 -99.74859 -14.92644 8.62886 36.11724 5.78497 -13.21855 -24.64833 -5.88718 -2.36435 -1.82452 65.14277 7.2566 -6.7972 -47.85275 -12.458 4.99784 3.62819
0.4533 -0.02275 -0.1374 -180.08213 -32.93364 -2.29882 40.05511 4.03547 -8.33736 9.26045 -9.97199 -0.83079 62.93723 11.04822 21.95656 134.79192 99.2593 -22.15081 -6.9092 -42.59678 54.52236 -43.67196 100.03438 -92.84547 -11.24548 7.98009 36.84413 6.04077 -13.97435 -24.62261 -5.89777 -2.31639 -1.79583 66.05226 7.30041 -7.40992 -47.86452 -12.50396 5.00596 3.63449
0.45559 -0.02324 -0.13892 -179.89937 -33.45392 -2.71131 40.2801 4.10862 -8.03798 9.83645 -9.27856 -0.83079 61.63378 11.10937 20.69535 135.41913 105.70703 -22.00782 -8.24465 -42.50211 54.60549 -43.67272 100.28198 -90.30373 -9.66487 7.69406 37.54144 6.3591 -14.58818 -24.60999 -5.90368 -2.27516 -1.77509 66.91983 7.8001 -7.16942 -47.84688 -12.40796 4.95615 3.6004
0.45774 -0.02376 -0.14061 -179.76527 -33.95982 -3.14377 40.50888 4.16361 -7.70707 10.38281 -8.43402 -0.83079 60.19406 11.18777 19.32226 135.93754 114.08437 -22.63389 -9.91423 -42.47868 54.63118 -43.55975 100.55991 -89.18203 -8.77886 7.53973 38.22097 6.69721 -15.16445 -24.6031 -5.90792 -2.23532 -1.75638 67.7641 8.44744 -6.65829 -47.82104 -12.26497 4.88836 3.55332
0.45994 -0.02428 -0.14223 -179.61063 -34.46719 -3.56687 40.73326 4.22522 -7.39107 10.93961 -7.65195 -0.83079 58.82281 11.25593 18.01091 136.49305 121.46451 -23.0183 -11.4161 -42.41035 54.69559 -43.52007 100.82962 -87.40516 -7.58773 7.34774 38.90184 7.0246 -15.7644 -24.59411 -5.91304 -2.19456 -1.73634 68.61071 9.00293 -6.32412 -47.80142 -12.15072 4.83297 3.51453
0.46222 -0.02477 -0.14382 -179.44918 -34.99696 -3.99261 40.9704 4.29289 -7.06633 11.50775 -6.88437 -0.83079 57.41425 11.33408 16.64716 137.10507 129.37461 -22.96096 -12.9907 -42.38855 54.7109 -43.39263 101.07911 -85.56593 -6.30213 7.05559 39.61204 7.359 -16.34355 -24.58331 -5.91767 -2.15447 -1.71763 69.49358 9.66229 -5.76574 -47.77216 -12.00533 4.76015 3.46575
0.46429 -0.02531 -0.14552 -179.31336 -35.4754 -4.41619 41.18076 4.34381 -6.75518 12.04462 -6.05705 -0.83079 56.05741 11.39562 15.3714 137.57206 136.61982 -23.98689 -14.48812 -42.28992 54.81199 -43.41813 101.37529 -84.23263 -5.39597 7.00187 40.25552 7.68313 -16.95342 -24.57752 -5.92289 -2.11356 -1.69684 70.29357 10.14176 -5.60462 -47.76036 -11.91307 4.7188 3.43451
0.46586 -0.02594 -0.14754 -179.23861 -35.82646 -4.83899 41.32311 4.35466 -6.48373 12.51669 -5.07944 -0.83079 54.84481 11.40637 14.32946 137.66234 141.68998 -27.99262 -15.72573 -41.95367 55.1792 -43.9116 101.80997 -83.96411 -5.38664 7.62403 40.73209 7.97968 -17.66872 -24.58417 -5.93015 -2.06962 -1.66919 70.88585 10.07388 -6.65699 -47.80277 -11.98597 4.77382 3.45672
0.46722 -0.02662 -0.14966 -179.18763 -36.12434 -5.25674 41.43704 4.34908 -6.22895 12.95585 -4.05286 -0.83079 53.69633 11.39993 13.38698 137.61024 145.99836 -33.02899 -16.86728 -41.5405 55.6313 -44.5587 102.28725 -84.1683 -5.73909 8.4744 41.13972 8.26412 -18.41303 -24.59561 -5.93789 -2.02494 -1.63953 71.3925 9.82234 -8.10912 -47.86217 -12.11282 4.86022 3.49669
0.46866 -0.02727 -0.15173 -179.12438 -36.43948 -5.67038 41.55933 4.35003 -5.97094 13.40137 -3.06414 -0.83079 52.53976 11.40182 12.42359 137.62462 150.56655 -37.47859 -18.02941 -41.16787 56.03444 -45.12436 102.73357 -84.16061 -5.92067 9.18856 41.57054 8.55074 -19.136 -24.60481 -5.94559 -1.98094 -1.61125 71.9284 9.66449 -9.34553 -47.91115 -12.21043 4.92889 3.52733
0.47015 -0.02794 -0.15385 -179.06901 -36.78331 -6.11268 41.70082 4.35433 -5.69316 13.88294 -2.00234 -0.83079 51.28752 11.40215 11.35449 137.62804 155.56608 -42.45653 -19.30048 -40.7717 56.48029 -45.73782 103.22971 -84.1864 -6.15238 10.04216 42.0353 8.85275 -19.89308 -24.61452 -5.95311 -1.93555 -1.58109 72.50489 9.46925 -10.71674 -47.97143 -12.32606 5.01145 3.56286
0.47148 -0.02858 -0.15587 -179.00225 -37.05489 -6.49267 41.79573 4.34794 -5.46124 14.28096 -1.08533 -0.83079 50.25401 11.40138 10.52966 137.62156 159.46222 -46.5666 -20.3177 -40.40837 56.85703 -46.2863 103.63212 -84.23875 -6.35726 10.66053 42.41296 9.11872 -20.58535 -24.6242 -5.96038 -1.89286 -1.55428 72.97607 9.3056 -11.90499 -48.01206 -12.41789 5.07291 3.59257
0.47247 -0.02912 -0.15759 -178.89716 -37.14027 -6.7111 41.76686 4.31645 -5.34983 14.46505 -0.56301 -0.83079 49.79089 11.4019 10.36387 137.62549 160.47541 -48.03809 -20.65317 -40.12991 57.03052 -46.64552 103.76211 -84.22847 -6.39321 10.55052 42.56906 9.29499 -21.10016 -24.63305 -5.96987 -1.85768 -1.53739 73.18314 9.27978 -12.49487 -47.99677 -12.42787 5.06689 3.60179
0.4733 -0.02961 -0.15919 -178.77934 -37.15461 -6.86489 41.69227 4.27471 -5.28454 14.56455 -0.19233 -0.83079 49.55094 11.40164 10.43887 137.62427 160.39754 -48.59193 -20.73542 -39.89217 57.12976 -46.92829 103.79675 -84.22573 -6.3869 10.19974 42.63942 9.43384 -21.54667 -24.64172 -5.97608 -1.82504 -1.52368 73.28595 9.29044 -12.8858 -47.96092 -12.41238 5.03864 3.60444
0.47419 -0.03011 -0.16084 -178.66831 -37.20161 -7.04247 41.64027 4.23764 -5.19969 14.69743 0.23603 -0.83079 49.21971 11.40178 10.39905 137.62416 160.82593 -49.55914 -20.93491 -39.65062 57.2584 -47.22984 103.87695 -84.22589 -6.4015 9.97344 42.74796 9.58543 -22.01986 -24.65004 -5.98495 -1.7916 -1.50864 73.43316 9.27974 -13.36806 -47.93259 -12.41124 5.02203 3.61047
0.47513 -0.03069 -0.16255 -178.55554 -37.24593 -7.2446 41.58049 4.20034 -5.10961 14.85119 0.71459 -0.83079 48.84281 11.40179 10.3875 137.62459 161.19066 -50.5903 -21.12278 -39.34128 57.4103 -47.60866 103.94921 -84.21619 -6.42446 9.69092 42.85806 9.75534 -22.51518 -24.65988 -5.99902 -1.75755 -1.49386 73.59104 9.28229 -13.86645 -47.91158 -12.40201 5.00116 3.61621
0.47593 -0.03109 -0.16408 -178.44098 -37.27867 -7.37889 41.52533 4.16079 -5.04104 14.94096 1.05072 -0.83079 48.61947 11.40132 10.37033 137.62407 161.43144 -51.2417 -21.27512 -39.18769 57.49252 -47.80065 104.01485 -84.22314 -6.41202 9.46617 42.94462 9.87748 -22.94436 -24.66705 -5.9888 -1.72425 -1.47829 73.70171 9.26908 -14.27099 -47.87142 -12.40065 4.98202 3.6198
0.4764 -0.03104 -0.16523 -178.34157 -37.30532 -7.35382 41.504 4.12197 -5.02157 14.88193 1.04125 -0.83079 48.71454 11.40268 10.30001 137.62492 161.63083 -51.17945 -21.39315 -39.42081 57.42118 -47.54436 104.08494 -84.26412 -6.33627 9.45078 42.99492 9.88371 -23.23747 -24.66244 -6.02898 -1.70334 -1.46959 73.71845 9.19653 -14.531 -47.77259 -12.44672 4.98593 3.62738
0.47673 -0.03081 -0.16619 -178.23713 -37.32141 -7.26045 41.48731 4.08047 -5.02183 14.76009 0.89204 -0.83079 48.96722 11.40055 10.21045 137.62367 161.72167 -50.7325 -21.48093 -39.81538 57.2779 -47.09323 104.15155 -84.32073 -6.21987 9.50193 43.02352 9.84161 -23.46105 -24.65644 -6.02882 -1.68185 -1.45877 73.689 9.10856 -14.68948 -47.65671 -12.49799 4.99 3.63152
0.47709 -0.03064 -0.16721 -178.12417 -37.33705 -7.19038 41.462 4.03742 -5.01243 14.66264 0.7988 -0.83079 49.17891 11.40142 10.11629 137.6243 161.86735 -50.39441 -21.58597 -40.15898 57.15366 -46.69791 104.21997 -84.37456 -6.10447 9.52799 43.05717 9.81767 -23.69624 -24.65337 -5.96331 -1.65248 -1.44169 73.67479 9.03371 -14.84877 -47.55617 -12.53351 4.98521 3.63155
0.47758 -0.03057 -0.16834 -178.05789 -37.37247 -7.15074 41.46208 4.00581 -5.00789 14.58038 0.7296 -0.83079 49.26269 11.40686 10.09027 137.62713 162.02812 -50.3374 -21.68085 -40.41146 57.08488 -46.43641 104.28416 -84.41166 -6.06193 9.52592 43.10761 9.80989 -24.01181 -24.63861 -6.22727 -1.6544 -1.45272 73.68388 8.93626 -15.19131 -47.42459 -12.6235 5.01598 3.65481
0.47775 -0.03025 -0.16918 -177.89148 -37.36493 -7.03234 41.41162 3.94973 -4.99693 14.45188 0.58229 -0.83079 49.65542 11.38873 9.91044 137.61697 162.04959 -49.57287 -21.776 -40.88894 56.884 -45.85317 104.35752 -84.48599 -5.8581 9.59901 43.11968 9.75566 -24.1464 -24.65035 -5.82518 -1.59497 -1.40782 73.63145 8.8792 -15.13241 -47.35174 -12.60309 4.97397 3.62957
0.47715 -0.02937 -0.16936 -177.46545 -37.24333 -6.71353 41.21577 3.82818 -4.96668 14.21792 0.22718 -0.83079 50.79565 11.41856 9.34732 137.63456 162.57409 -47.33083 -22.03165 -41.96996 56.34126 -44.41062 104.45838 -84.66672 -5.2225 9.883 43.02702 9.60014 -23.78068 -24.71627 -3.33359 -1.33119 -1.18119 73.44912 8.95984 -13.97455 -47.46158 -12.26406 4.72256 3.46565
0.47622 -0.02823 -0.16923 -176.93579 -37.07897 -6.3183 40.97051 3.68201 -4.92867 13.9385 -0.19586 -0.83079 52.25426 11.40323 8.62387 137.62357 162.8281 -44.33469 -22.26516 -43.26698 55.66848 -42.65577 104.56906 -84.88156 -4.42612 10.23692 42.89838 9.39667 -23.23894 -24.81379 -0.21808 -1.01166 -0.90309 73.20114 9.07751 -12.42024 -47.62668 -11.81636 4.39939 3.25401
